<svg xmlns="http://www.w3.org/2000/svg" viewBox="0 0 198.6 87.2" enable-background="new 0 0 198.6 87.2"><g id="Layer_1_00000150812770956425439960000008823736632783385256_"><path d="M25.5 35.5c3.4 1.7 5.1 4.4 5.1 7.9 0 3.3-1.2 5.8-3.5 7.7-2.4 1.9-5.8 2.8-10.3 2.8h-16.8v-35.6h15.8c4.5 0 7.9.9 10.2 2.6 2.3 1.7 3.5 4.2 3.5 7.4 0 3.1-1.3 5.5-4 7.2zm-10.4-8.5h-3.7v4.8l4.4-.1c1.6-.2 2.4-1 2.4-2.3 0-.8-.3-1.4-.9-1.8-.6-.4-1.4-.6-2.2-.6zm1 18.1c.9 0 1.7-.2 2.3-.7.6-.5.9-1.1.9-1.8 0-1.4-.9-2.3-2.6-2.5l-5.3-.1v5.1h4.7zM57.3 53.9l-1.4-4.6h-11.4l-1.4 4.6h-12.2l12.6-35.6h13.3l12.6 35.6h-12.1zm-10.4-12.7h6.6l-3.3-10.9-3.3 10.9zM113.1 18.3v35.6h-11.3v-17.4l-8.8 13.3h-1l-8.8-13.3v17.3h-11.5v-35.5h11.3l9.4 14.5 9.4-14.5h11.3z"/><path fill="#D7272C" d="M0 75.5h5c1.2 0 2.1.3 2.8.9s1 1.2 1 2c0 1-.5 1.8-1.6 2.3.8.2 1.4.6 1.8 1.1.4.5.6 1.1.6 1.8 0 1-.3 1.8-1 2.4-.6.7-1.7 1-3 1h-5.6v-11.5zm2.9 2.1v2.5h1.5c.5 0 .8-.1 1.1-.4.3-.2.4-.5.4-.9s-.1-.6-.4-.9c-.3-.2-.6-.3-1.1-.3h-1.5zm0 4.6v2.7h1.6c.8 0 1.3-.1 1.7-.3.3-.2.5-.6.5-1.1 0-.4-.2-.7-.5-1s-.7-.3-1.3-.3h-2zM20.1 75.5h2.9v6.5c0 1.7-.5 3-1.5 3.8s-2.4 1.3-4.3 1.3c-1.8 0-3.2-.4-4.3-1.3-1-.9-1.5-2.1-1.5-3.8v-6.6h2.9v6.6c0 .8.3 1.4.8 1.9s1.2.7 2.1.7c.9 0 1.6-.2 2.1-.7.5-.5.8-1.2.8-2.1v-6.3zM28.5 75.5v11.5h-2.9v-11.5h2.9zM40 84.9v2.1h-8.8v-11.5h2.9v9.4h5.9zM41.7 75.5h5.1c2 0 3.5.5 4.7 1.6 1.1 1.1 1.7 2.5 1.7 4.2 0 1.8-.6 3.2-1.7 4.2-1.2 1-2.8 1.5-5 1.5h-4.8v-11.5zm2.9 2.1v7.3h1.9c1.2 0 2.1-.3 2.8-1 .6-.7 1-1.6 1-2.6 0-1.1-.3-2-1-2.7-.7-.7-1.6-1-2.8-1h-1.9zM58.3 75.5v11.5h-2.9v-11.5h2.9zM72.7 75.5v11.5h-2.4l-6.3-7.4v7.4h-2.9v-11.5h2.6l6.2 7v-7h2.8zM86.4 76.3v2.5c-1.5-.7-2.9-1.1-4.3-1.1s-2.4.3-3.1 1c-.7.7-1.1 1.6-1.1 2.6s.4 1.8 1.1 2.5c.7.6 1.7.9 2.9.9.6 0 1.3-.1 1.9-.4v-1.3h-1.7v-2.1h4.5v4.7c-.5.5-1.1.8-2.1 1.1-.9.3-1.9.4-2.8.4-2 0-3.7-.6-4.9-1.7-1.3-1.1-1.9-2.5-1.9-4.2 0-1.7.6-3.2 1.9-4.3 1.3-1.1 3-1.7 5-1.7 1.8.1 3.3.5 4.6 1.1zM97.1 76.2v2.3c-1.5-.7-2.7-1-3.7-1-.5 0-.9.1-1.2.3-.3.2-.5.4-.5.7 0 .2.1.4.3.6.2.2.8.5 1.6.8s1.5.6 2 .9c.5.3 1 .6 1.3 1.1.4.5.6 1.1.6 1.9 0 1.1-.4 1.9-1.2 2.5-.8.6-1.9.9-3.2.9-1.4 0-2.8-.4-4.2-1.1v-2.5c.8.5 1.5.9 2 1.1.6.2 1.2.4 1.9.4 1.1 0 1.7-.4 1.7-1.1 0-.2-.1-.5-.3-.7-.2-.2-.8-.5-1.6-.8s-1.5-.6-2-.9-.9-.6-1.3-1.1c-.4-.5-.5-1.1-.5-1.9 0-1 .4-1.8 1.2-2.4.8-.6 1.9-.9 3.2-.9 1.2 0 2.5.3 3.9.9zM109.4 75.5l5.1 11.5h-3.1l-.9-2.3h-5.2l-.9 2.3h-3l4.7-11.5h3.3zm.2 7.2l-1.9-4.5-1.7 4.5h3.6zM127.6 75.5v11.5h-2.4l-6.4-7.4v7.4h-2.9v-11.5h2.6l6.2 7v-7h2.9zM130.2 75.5h5.1c2 0 3.5.5 4.7 1.6 1.1 1.1 1.7 2.5 1.7 4.2 0 1.8-.6 3.2-1.7 4.2-1.2 1-2.8 1.5-5 1.5h-4.8v-11.5zm2.9 2.1v7.3h1.9c1.2 0 2.1-.3 2.8-1 .6-.7 1-1.6 1-2.6 0-1.1-.3-2-1-2.7-.7-.7-1.6-1-2.8-1h-1.9zM154.9 79.8l3.7-4.3h2.5v11.5h-2.9v-7.2l-3.1 3.6h-.4l-3.1-3.6v7.2h-2.9v-11.5h2.5l3.7 4.3zM169.8 75.3c2 0 3.6.6 4.8 1.8 1.2 1.2 1.8 2.6 1.8 4.1 0 1.6-.6 3-1.8 4.1s-2.8 1.8-4.7 1.8c-2 0-3.5-.6-4.8-1.7-1.2-1.2-1.8-2.6-1.8-4.2s.6-3 1.8-4.1c1.1-1.2 2.7-1.8 4.7-1.8zm0 9.5c1.1 0 2-.3 2.6-1s1-1.5 1-2.5c0-1.1-.3-1.9-1-2.5s-1.5-1-2.6-1-2 .3-2.6 1c-.7.6-1 1.5-1 2.5s.3 1.9 1 2.5c.6.6 1.5 1 2.6 1zM178.6 75.5h5.1c1.1 0 2 .3 2.7 1 .7.6 1 1.4 1 2.3 0 1.3-.7 2.2-2 2.8.6.3 1.1 1 1.7 2.1.5 1.2 1 2.2 1.5 3.3h-3.2c-.2-.4-.5-1.1-1-2.2s-.9-1.8-1.2-2.1c-.3-.3-.7-.5-1.1-.5h-.8v4.8h-2.9l.2-11.5zm2.8 2.1v2.6h1.5c.5 0 .9-.1 1.1-.3.3-.2.4-.6.4-1 0-.9-.5-1.3-1.6-1.3h-1.4zM198.6 84.9v2.1h-8.5v-11.5h8.4v2.1h-5.5v2.4h5.3v2.1h-5.3v2.8h5.6z"/><path d="M0 61.4h198.5v8.2h-198.5z"/><path fill="#D7272C" d="M139.8 43.9l.1 10.4h-9.1v-27.4l27.1-12.4v39.8h-10.1v-11.6zM159.1 14.5l26.7 12.4v4.6l-26.7-10.5zM159.1 22.2l26.7 10.7v3.7l-26.7-9zM159.1 29.2l26.7 8.5v3.1l-26.7-6.2zM159.1 36l26.7 6v3.4l-26.7-4zM159.1 49.6l26.7 1.6v3.1h-26.7zM159.1 42.9l26.7 3.8v3.4l-26.7-1.7z"/><path d="M118.1 18h7.1v36.3h-7.1zM118.171 18.003l40.15-18.005 2.905 6.479-40.15 18.005zM118.171 18.003l40.15-18.005 2.905 6.479-40.15 18.005zM191.4 18h7.1v36.3h-7.1zM191.4 18h7.1v36.3h-7.1zM155.369 6.468l2.905-6.479 40.15 18.005-2.905 6.479zM155.369 6.468l2.905-6.479 40.15 18.005-2.905 6.479zM118.1 18h7.1v36.3h-7.1zM118.171 18.003l40.15-18.005 2.905 6.479-40.15 18.005zM191.4 18h7.1v36.3h-7.1zM155.369 6.468l2.905-6.479 40.15 18.005-2.905 6.479z"/></g></svg>